Coordinates
version=1
nRows=32
nColumns=22
inDegrees=yes

Units are S.I. units (second, meters, Newtons, ...)
If the header above contains a line with 'inDegrees', this indicates whether rotational values are in degrees (yes) or radians (no).

endheader
time	pelvis_tilt	pelvis_list	pelvis_rotation	pelvis_tx	pelvis_ty	pelvis_tz	hip_flexion_r	hip_adduction_r	hip_rotation_r	knee_angle_r	ankle_angle_r	subtalar_angle_r	hip_flexion_l	hip_adduction_l	hip_rotation_l	knee_angle_l	ankle_angle_l	subtalar_angle_l	lumbar_extension	lumbar_bending	lumbar_rotation
      1.15000000	    -11.36972597	      1.90498477	     -6.85784925	     -0.75720667	      0.96987641	      0.21352408	     40.55310544	     -0.87653198	      0.52040553	    -34.55938221	     13.66869695	      0.08656148	     14.25253938	      6.28705556	     -5.14553535	    -16.62776607	     21.72378371	     -5.75746389	     -1.32754441	     -0.98865880	     -0.18446852
      1.16000000	    -11.30035346	      1.91071805	     -6.75864165	     -0.75369045	      0.96943921	      0.21342969	     40.70121779	     -0.77944885	      0.55551135	    -33.44266910	     13.53254767	      0.69257661	     13.97287741	      6.35524305	     -5.03316669	    -16.66410365	     21.94707681	     -5.77974806	     -1.44774832	     -1.02654350	     -0.23843861
      1.17000000	    -11.22483272	      1.90106255	     -6.64669053	     -0.75005024	      0.96896736	      0.21334192	     40.82229817	     -0.68144151	      0.55854509	    -32.32073466	     13.38261988	      1.24400579	     13.70113862	      6.40470724	     -4.93251249	    -16.74828032	     22.18439532	     -5.80880132	     -1.57430403	     -1.04375220	     -0.30391041
      1.18000000	    -11.14543698	      1.88492619	     -6.53051688	     -0.74623542	      0.96846581	      0.21326302	     40.92469977	     -0.59106918	      0.52237694	    -31.21521376	     13.23377443	      1.77181146	     13.41315674	      6.44514485	     -4.85352185	    -16.82964710	     22.43518436	     -5.83618145	     -1.69372549	     -1.04657813	     -0.38775525
      1.19000000	    -11.04337735	      1.88476519	     -6.41545718	     -0.74228148	      0.96794898	      0.21319412	     41.00119952	     -0.52176333	      0.49522445	    -30.15063986	     13.14076191	      2.33900728	     13.09832488	      6.50759250	     -4.74714430	    -16.92031570	     22.69457589	     -5.86019850	     -1.83297679	     -1.06789859	     -0.44835361
      1.20000000	    -10.94138685	      1.88624214	     -6.29880010	     -0.73817983	      0.96739089	      0.21314137	     41.07376205	     -0.46135126	      0.45766705	    -29.13628862	     13.05683396	      2.80657598	     12.78040391	      6.57031794	     -4.63708868	    -17.02281372	     22.96837566	     -5.88080511	     -1.96318495	     -1.08864936	     -0.50477576
      1.21000000	    -10.85510136	      1.89498159	     -6.18288006	     -0.73394000	      0.96676311	      0.21309824	     41.16684795	     -0.41194682	      0.40775574	    -28.19044997	     12.95080146	      3.10344415	     12.47501268	      6.64125305	     -4.49815288	    -17.13376938	     23.27087515	     -5.89451518	     -2.06354159	     -1.11346307	     -0.52421154
      1.22000000	    -10.71840799	      1.88790278	     -6.05510022	     -0.72951915	      0.96620046	      0.21306134	     41.18821656	     -0.37041411	      0.32937241	    -27.29451004	     12.90125651	      3.43799753	     12.11580368	      6.69431499	     -4.41230210	    -17.26677960	     23.53631513	     -5.91189654	     -2.21861416	     -1.11899394	     -0.60858939
      1.23000000	    -10.60684686	      1.88563429	     -5.92656421	     -0.72496097	      0.96555638	      0.21303936	     41.24109086	     -0.33919597	      0.21726330	    -26.47579754	     12.80717935	      3.64367525	     11.77724847	      6.75085279	     -4.29562202	    -17.40598533	     23.83171153	     -5.92001246	     -2.33218676	     -1.12787738	     -0.65647143
      1.24000000	    -10.49065348	      1.87768881	     -5.78959293	     -0.72022858	      0.96489128	      0.21301308	     41.28383690	     -0.32026481	      0.04397212	    -25.72611992	     12.70405527	      3.81583057	     11.42433461	      6.80228137	     -4.17493768	    -17.55080525	     24.13276335	     -5.91975124	     -2.43945409	     -1.12635703	     -0.70895003
      1.25000000	    -10.38635854	      1.87083004	     -5.64629596	     -0.71533378	      0.96417008	      0.21297294	     41.34255484	     -0.31887809	     -0.20557604	    -25.05773274	     12.58362672	      3.96777290	     11.07757345	      6.85560350	     -4.03766210	    -17.70520858	     24.44767076	     -5.91165490	     -2.52083876	     -1.12018218	     -0.74172937
      1.26000000	    -10.26181863	      1.85746608	     -5.49386943	     -0.71024459	      0.96346468	      0.21292886	     41.36588972	     -0.32868772	     -0.51692266	    -24.44787423	     12.49826402	      4.15966904	     10.69398567	      6.90242290	     -3.91250562	    -17.85680792	     24.74867763	     -5.89130381	     -2.61442174	     -1.10116341	     -0.80567696
      1.27000000	    -10.14640766	      1.84910142	     -5.34113852	     -0.70500027	      0.96271074	      0.21289675	     41.40201045	     -0.35101186	     -0.89135703	    -23.92010327	     12.42657714	      4.34707998	     10.31223436	      6.95263265	     -3.77805865	    -18.01383150	     25.05969360	     -5.86358736	     -2.68781534	     -1.08542210	     -0.85931862
      1.28000000	    -10.03274250	      1.84272210	     -5.18585678	     -0.69958647	      0.96192990	      0.21287771	     41.43924704	     -0.38378736	     -1.33065211	    -23.47124181	     12.38896112	      4.52177207	      9.91757764	      7.00303795	     -3.64421997	    -18.16622337	     25.37304677	     -5.82818851	     -2.74836235	     -1.06768880	     -0.91325402
      1.29000000	     -9.90928047	      1.83116848	     -5.04475634	     -0.69398424	      0.96115720	      0.21290073	     41.46267097	     -0.41182600	     -1.82941983	    -23.09919560	     12.38841684	      4.69844403	      9.48106403	      7.04333453	     -3.52654536	    -18.28367618	     25.65314771	     -5.77572714	     -2.80865213	     -1.04046399	     -0.95651972
      1.30000000	     -9.81007527	      1.82796606	     -4.89263033	     -0.68826997	      0.96031419	      0.21293804	     41.51407305	     -0.45113252	     -2.36219833	    -22.80878747	     12.42469070	      4.78905767	      9.06702425	      7.08977184	     -3.38628450	    -18.41246309	     25.95926143	     -5.72911349	     -2.83600126	     -1.02100307	     -1.00109998
      1.31000000	     -9.72247813	      1.82391685	     -4.73773643	     -0.68243702	      0.95944211	      0.21302154	     41.56632215	     -0.48724989	     -2.91782013	    -22.57751228	     12.50216471	      4.83114843	      8.65180161	      7.13005966	     -3.23328051	    -18.53372078	     26.25971781	     -5.67995563	     -2.84868982	     -1.00135433	     -1.05340013
      1.32000000	     -9.64059980	      1.80642200	     -4.58240682	     -0.67645071	      0.95857132	      0.21315030	     41.60630036	     -0.50955552	     -3.50372406	    -22.40119484	     12.59034826	      4.84576816	      8.21264278	      7.15088582	     -3.07180546	    -18.62001858	     26.53735037	     -5.61659231	     -2.85008574	     -0.96615861	     -1.10730372
      1.33000000	     -9.55252126	      1.77141763	     -4.43354954	     -0.67030850	      0.95773418	      0.21332067	     41.60950193	     -0.50783759	     -4.09039562	    -22.25812141	     12.66524396	      4.83428915	      7.73705194	      7.14838136	     -2.91304162	    -18.67111966	     26.77773206	     -5.51894564	     -2.85546352	     -0.90666303	     -1.15297270
      1.34000000	     -9.51612383	      1.75054440	     -4.26055186	     -0.66408551	      0.95679415	      0.21350685	     41.65474620	     -0.51965036	     -4.65362923	    -22.17262321	     12.79460215	      4.80736513	      7.32373208	      7.15246686	     -2.73536513	    -18.74787487	     27.04207863	     -5.44195144	     -2.80334819	     -0.86357248	     -1.22435349
      1.35000000	     -9.48966338	      1.72030013	     -4.07390565	     -0.65772637	      0.95586264	      0.21369710	     41.67669728	     -0.52282293	     -5.19352724	    -22.11646401	     12.91714608	      4.77225997	      6.91026010	      7.14307513	     -2.54063676	    -18.82512577	     27.27068299	     -5.34446455	     -2.73950277	     -0.80460643	     -1.29956712
      1.36000000	     -9.47500394	      1.68597143	     -3.86801911	     -0.65122951	      0.95494510	      0.21392092	     41.67159220	     -0.51988621	     -5.69016640	    -22.08265558	     13.03935768	      4.72039273	      6.49909097	      7.12047782	     -2.33819757	    -18.90148162	     27.45834843	     -5.21969599	     -2.66330188	     -0.74419525	     -1.39741002
      1.37000000	     -9.45217932	      1.64218737	     -3.65301365	     -0.64458282	      0.95408251	      0.21416457	     41.61504542	     -0.50045741	     -6.12358229	    -22.06781027	     13.12691516	      4.59999213	      6.06792938	      7.08061248	     -2.14211426	    -18.97684327	     27.59980668	     -5.00433857	     -2.59841594	     -0.66911519	     -1.50198798
      1.38000000	     -9.48342978	      1.63391714	     -3.40455903	     -0.63785281	      0.95312844	      0.21439277	     41.59725957	     -0.51410397	     -6.45759537	    -22.10979108	     13.26830975	      4.49544390	      5.71050578	      7.07150311	     -1.92345086	    -19.09091588	     27.73136853	     -4.87911924	     -2.47210343	     -0.63160363	     -1.63887721
      1.39000000	     -9.52177071	      1.61254120	     -3.13538931	     -0.63100653	      0.95220944	      0.21463854	     41.55362375	     -0.51208012	     -6.71024836	    -22.19534472	     13.32888169	      4.30024951	      5.35756454	      7.04190052	     -1.68277033	    -19.21528327	     27.81271908	     -4.69961708	     -2.34527765	     -0.57381733	     -1.80385614
      1.40000000	     -9.57994782	      1.58668577	     -2.86816996	     -0.62403567	      0.95130267	      0.21496809	     41.49255008	     -0.47951197	     -6.84857028	    -22.30612263	     13.28009219	      3.82833675	      5.02822562	      6.99054747	     -1.48474833	    -19.35652577	     27.87663618	     -4.41937431	     -2.19523951	     -0.51597198	     -1.94130336
      1.41000000	     -9.66115812	      1.56276238	     -2.55395954	     -0.61701547	      0.95040297	      0.21525101	     41.44633082	     -0.46827917	     -6.90725293	    -22.50152618	     13.16888295	      3.48082733	      4.74034732	      6.94309133	     -1.20489618	    -19.53538507	     27.89371188	     -4.26005560	     -2.03302585	     -0.45468046	     -2.13116270
      1.42000000	     -9.77483243	      1.51334806	     -2.26179045	     -0.60989126	      0.94950704	      0.21567043	     41.40617648	     -0.38691452	     -6.80258346	    -22.73314287	     12.85425002	      2.71863466	      4.49669582	      6.84853295	     -0.97976652	    -19.74046441	     27.93492671	     -4.00694251	     -1.83541458	     -0.36537046	     -2.30553520
      1.43000000	     -9.89155404	      1.42990415	     -1.96531163	     -0.60268276	      0.94868503	      0.21611064	     41.37075269	     -0.27531391	     -6.65468312	    -23.05240185	     12.35048980	      1.92582687	      4.27440386	      6.71448621	     -0.73060044	    -19.99004459	     27.91463357	     -3.77483755	     -1.64624614	     -0.23186180	     -2.45545746
      1.44000000	    -10.01298203	      1.30811428	     -1.69202176	     -0.59535599	      0.94794543	      0.21663487	     41.34362441	     -0.10912667	     -6.44501737	    -23.44533621	     11.64454666	      0.99962863	      4.06913140	      6.53017259	     -0.50205534	    -20.27122500	     27.86084874	     -3.52292154	     -1.45539837	     -0.04903768	     -2.58369601
      1.45000000	    -10.11620242	      1.16840780	     -1.45114878	     -0.58790435	      0.94733544	      0.21723322	     41.32035182	      0.08879183	     -6.19646901	    -23.92840988	     10.76087612	     -0.03836594	      3.85033277	      6.32268794	     -0.28724822	    -20.56911821	     27.76993766	     -3.24327405	     -1.29011681	      0.16166200	     -2.69029888
      1.46000000	    -10.19829834	      0.98021671	     -1.24102655	     -0.58033541	      0.94688268	      0.21789578	     41.29178721	      0.33532573	     -5.95921938	    -24.47747812	      9.76430211	     -1.07129833	      3.63620255	      6.06108941	     -0.07525312	    -20.92963218	     27.62350812	     -2.94196661	     -1.15629302	      0.43679129	     -2.74966082
